<?xml version="1.0" encoding="UTF-8"?>
<svg version="1.1" xmlns="http://www.w3.org/2000/svg" width="473" height="422">
<path d="M0 0 C2.5625 1.9375 2.5625 1.9375 4 5 C3.83503374 8.46429148 2.92895095 11.66971083 2 15 C-1.3649029 27.46696524 -2.18721551 39.10293147 -2 52 C-0.02 52.99 1.96 53.98 4 55 C4.268125 53.7625 4.53625 52.525 4.8125 51.25 C4.99941406 50.43144531 5.18632812 49.61289062 5.37890625 48.76953125 C5.80807726 46.85580642 6.21004768 44.93585114 6.58984375 43.01171875 C8.28838896 35.10192537 10.72772893 29.14798921 17.375 24.25 C20.93259084 23.91118182 22.87961095 25.18820845 25.9375 26.9140625 C27.92401599 27.95999327 29.70696853 28.57395867 31.875 29.125 C35 30 35 30 37 32 C37.01171875 34.3125 37.01171875 34.3125 36.6875 37 C36.58824219 37.886875 36.48898438 38.77375 36.38671875 39.6875 C36 42 36 42 35 44 C34.77141886 46.0374763 34.58975722 48.08040303 34.4375 50.125 C34.31181641 51.76855469 34.31181641 51.76855469 34.18359375 53.4453125 C34.12300781 54.28835938 34.06242187 55.13140625 34 56 C37.26460973 54.19587357 38.88929795 53.16605307 41 50 C41.22739568 47.54775029 41.22739568 47.54775029 41.08984375 44.80078125 C41.06776855 43.76348877 41.04569336 42.72619629 41.02294922 41.6574707 C40.99475098 40.55363037 40.96655273 39.44979004 40.9375 38.3125 C40.77117093 26.10131969 41.52927363 14.51809275 46 3 C49.7218347 1.13908265 53.94719381 1.4319689 58 2 C61.87609223 4.82631725 63.5404323 7.50902245 65 12 C66.65597261 24.66411843 64.07854916 34.39336638 57 45 C56.2471875 45.87527344 55.494375 46.75054687 54.71875 47.65234375 C52.79134377 49.84748061 52.79134377 49.84748061 52.828125 52.45703125 C53.03695312 53.62298828 53.03695312 53.62298828 53.25 54.8125 C53.37890625 55.60269531 53.5078125 56.39289063 53.640625 57.20703125 C53.75921875 57.79871094 53.8778125 58.39039063 54 59 C58.1806673 57.55284593 60.43543891 56.62246479 63.4375 53.3125 C65.01438308 49.96950786 65.22139475 47.86694415 65.00390625 44.21875 C64.9978806 40.7961811 65.85328934 37.60872086 66.66015625 34.296875 C67.02005456 31.86445883 66.75989899 30.31689481 66 28 C69.71616032 26.8108287 73.12097502 26.65973465 77 27 C79.9375 29 79.9375 29 82 31 C81.525625 32.155 81.05125 33.31 80.5625 34.5 C78.20133866 41.43869583 78.25833567 48.73987682 78 56 C81.2548114 54.98988612 82.01485827 53.97411463 83.7421875 50.96484375 C85.44092873 46.51340613 85.28934638 42.26480972 85.125 37.5625 C84.97357049 29.73670974 85.22571118 22.08317646 85.87890625 14.28515625 C86.13350121 11.06608401 86.13350121 11.06608401 85.40234375 8.24609375 C85 6 85 6 87 3 C89.3125 2.453125 89.3125 2.453125 92 2.25 C92.886875 2.17265625 93.77375 2.0953125 94.6875 2.015625 C97 2 97 2 99 3 C99.13534286 12.05293337 98.75741925 20.97859571 98 30 C98.99 29.67 99.98 29.34 101 29 C101 28.34 101 27.68 101 27 C104.69483919 25.81765146 108.14353614 25.7195299 112 26 C114.40943454 27.52597521 114.87342888 28.5286037 115.609375 31.26953125 C116.34165514 36.38816942 115.72586704 42.48131279 112.75 46.82421875 C111.375 48.1875 111.375 48.1875 109 50 C109.99 52.475 109.99 52.475 111 55 C115.83256305 54.58578031 117.82679218 52.53586014 121 49 C121.99 49.33 122.98 49.66 124 50 C126.97683442 39.77232869 129.18990084 29.47610795 131.16088867 19.01000977 C133.96945191 4.36593674 133.96945191 4.36593674 136 0 C140.77194312 -1.59064771 145.13558436 -1.15126612 150 0 C159.28726287 4.86178862 159.28726287 4.86178862 161 10 C161.0485507 12.16482179 161.03706362 14.33119267 160.9921875 16.49609375 C160.96705078 18.41711914 160.96705078 18.41711914 160.94140625 20.37695312 C160.91045502 22.40917157 160.87492091 24.44097061 160.82861328 26.47290039 C160.78618385 28.43871806 160.76393482 30.40493851 160.7421875 32.37109375 C160.7201123 33.54599365 160.69803711 34.72089355 160.67529297 35.93139648 C161.03323607 39.31409334 161.90416157 40.43279537 164 43 C163.690625 43.845625 163.38125 44.69125 163.0625 45.5625 C161.52446296 50.5385022 162.41620955 55.0786609 164 60 C164.98044562 61.01917927 165.97772433 62.02278331 167 63 C167 63.99 167 64.98 167 66 C166.01 66 165.02 66 164 66 C164 66.66 164 67.32 164 68 C162.58430936 68.08167446 161.16723195 68.13949698 159.75 68.1875 C158.96109375 68.22230469 158.1721875 68.25710938 157.359375 68.29296875 C154.28274422 67.91093678 153.1248049 67.27134317 151 65 C149.953125 61.64453125 149.953125 61.64453125 149.25 57.8125 C149.00765625 56.54019531 148.7653125 55.26789063 148.515625 53.95703125 C148.34546875 52.98121094 148.1753125 52.00539063 148 51 C146.54176788 50.9729957 145.08339325 50.95360213 143.625 50.9375 C142.40683594 50.92009766 142.40683594 50.92009766 141.1640625 50.90234375 C138.95062858 50.85533666 138.95062858 50.85533666 137 52 C136.31348179 53.55764636 135.69872148 55.14737306 135.125 56.75 C133.57370933 60.75129956 132.18490725 64.00811744 129 67 C125.38815751 68.29655884 122.67609777 67.94528228 119 67 C117.7922442 63.37673261 118.45688872 62.35853631 120 59 C119.27296875 59.77537109 119.27296875 59.77537109 118.53125 60.56640625 C113.25097263 65.7552942 113.25097263 65.7552942 109.86328125 66.41796875 C105.99834497 66.10141206 104.19041539 65.15316021 101.125 62.6875 C99.377055 60.47686368 98.05720221 58.59495087 97 56 C96.05917017 61.19103087 96.05917017 61.19103087 96.625 66.3125 C96.810625 67.1478125 96.810625 67.1478125 97 68 C95.5625 69.75 95.5625 69.75 94 71 C86.75294118 68.85882353 86.75294118 68.85882353 84 66 C83.75 63.3125 83.75 63.3125 84 61 C83.505 61.66 83.01 62.32 82.5 63 C79.63639366 65.29088507 77.6868103 65.62976898 74.0390625 65.47265625 C70.47029071 64.64541221 68.55432354 62.55432354 66 60 C65.505 60.99 65.505 60.99 65 62 C64.34 62 63.68 62 63 62 C62.62875 62.8971875 62.62875 62.8971875 62.25 63.8125 C60.69751626 66.52934654 59.83924995 67.61677567 57 69 C52.08710444 69.32200626 48.8903881 68.70489058 45 65.625 C43 63 43 63 42 60 C40.515 60.495 40.515 60.495 39 61 C39 61.66 39 62.32 39 63 C32.64500485 66.05528613 32.64500485 66.05528613 29.8125 65.8125 C27.84158968 64.92898848 25.90421481 64.02011508 24 63 C23.46375 63.78375 22.9275 64.5675 22.375 65.375 C19.62815262 68.41098921 18.02598195 69.34269682 14 70 C10.26772111 68.40045191 7.74690109 65.95037525 5 63 C4.319375 63.474375 3.63875 63.94875 2.9375 64.4375 C-0.59896262 66.31859714 -2.98206148 67 -7 67 C-11.11787685 64.51373473 -12.53552327 63.11896666 -14.375 58.6875 C-15.46549849 52.25355892 -15.06799231 46.40795388 -14 40 C-14.66 40 -15.32 40 -16 40 C-16.13736572 40.57508301 -16.27473145 41.15016602 -16.41625977 41.74267578 C-16.97557029 43.90553029 -17.62875658 45.99988065 -18.33984375 48.1171875 C-18.59830078 48.88933594 -18.85675781 49.66148437 -19.12304688 50.45703125 C-19.52620117 51.65392578 -19.52620117 51.65392578 -19.9375 52.875 C-20.20240234 53.66519531 -20.46730469 54.45539063 -20.74023438 55.26953125 C-21.25576293 56.80716231 -21.77185501 58.34460458 -22.28857422 59.88183594 C-23.1969447 62.58637345 -24.09910545 65.29296421 -25 68 C-28.8176835 67.19241311 -31.4665674 66.44008189 -34.5 63.9375 C-36.64105504 59.74460055 -35.78184867 56.45099678 -35 52 C-34.73146603 50.00489207 -34.4633199 48.00971291 -34.20556641 46.01318359 C-33.81731946 43.00692171 -33.40761542 40.00369036 -33 37 C-33.66 37 -34.32 37 -35 37 C-35.103125 37.99 -35.20625 38.98 -35.3125 40 C-35.70206663 42.78261878 -36.37482689 45.15235462 -37.4375 47.75 C-38.73608192 50.99645481 -39.46852662 54.1165116 -40.0625 57.5625 C-40.22363281 58.490625 -40.38476562 59.41875 -40.55078125 60.375 C-40.82512675 61.97813197 -41.09459464 63.58212083 -41.35546875 65.1875 C-41.75 67.0625 -41.75 67.0625 -43 70 C-46.125 71.4375 -46.125 71.4375 -49 72 C-50.15147661 70.73427767 -51.29599314 69.46222094 -52.4375 68.1875 C-53.07558594 67.47980469 -53.71367188 66.77210938 -54.37109375 66.04296875 C-57.91444794 61.59890582 -57.19119974 56.52754759 -57.1875 51.125 C-57.18814453 50.15933105 -57.18878906 49.19366211 -57.18945312 48.19873047 C-57.1171454 38.0641457 -56.15218964 28.06108457 -55 18 C-55.66 18 -56.32 18 -57 18 C-56.48914188 11.56318772 -55.27057103 6.04057576 -53 0 C-51.22992286 -0.08114106 -49.45877902 -0.13925505 -47.6875 -0.1875 C-46.70136719 -0.22230469 -45.71523437 -0.25710937 -44.69921875 -0.29296875 C-42 0 -42 0 -40.1328125 1.2578125 C-38.68832176 3.47933964 -38.78684004 4.46528072 -39.1875 7.0625 C-39.30480469 7.86558594 -39.42210938 8.66867188 -39.54296875 9.49609375 C-39.97919156 11.88599818 -40.48100624 14.25189111 -41 16.625 C-42.42444445 23.34327534 -42.63323451 30.16071697 -43 37 C-42.63032104 35.81241089 -42.63032104 35.81241089 -42.25317383 34.60083008 C-41.32425404 31.64281128 -40.38151847 28.68965344 -39.42944336 25.73901367 C-38.82186911 23.84175668 -38.23013916 21.93944925 -37.63867188 20.03710938 C-37.24873047 18.83505859 -36.85878906 17.63300781 -36.45703125 16.39453125 C-36.10616455 15.28956299 -35.75529785 14.18459473 -35.39379883 13.04614258 C-33.77237412 9.50252441 -32.01398663 7.45574563 -29 5 C-24.71219277 5.07392771 -22.57498466 5.6166769 -19 8 C-17.90698069 13.45334365 -19.29322957 19.22789883 -20.5625 24.54296875 C-21.07074685 27.39731939 -21.06699428 30.10668447 -21 33 C-19.83772596 29.86000372 -18.69832952 26.7121486 -17.5625 23.5625 C-17.23701172 22.68400391 -16.91152344 21.80550781 -16.57617188 20.90039062 C-14.76267829 15.83382608 -13.57197076 11.2269609 -13.28271484 5.84155273 C-13 4 -13 4 -11.0625 1.5 C-7.06157372 -1.40976457 -4.83844821 -1.16790129 0 0 Z M144 10 C140.72518287 23.35419713 140.72518287 23.35419713 140 37 C141.11836224 38.34404775 141.11836224 38.34404775 144 38.125 C146.88163776 38.34404775 146.88163776 38.34404775 148 37 C148.08748207 35.07332493 148.10697334 33.14348139 148.09765625 31.21484375 C148.09443359 30.04501953 148.09121094 28.87519531 148.08789062 27.66992188 C148.07951172 26.43822266 148.07113281 25.20652344 148.0625 23.9375 C148.05798828 22.70193359 148.05347656 21.46636719 148.04882812 20.19335938 C148.03699608 17.12885883 148.02051173 14.06445279 148 11 C146.68 10.67 145.36 10.34 144 10 Z M55 11 C53.11328411 20.10386211 51.83129234 28.68358803 52 38 C58.29497504 30.23907187 57.24411586 20.53408036 57 11 C56.34 11 55.68 11 55 11 Z M22 34 C17.51644943 40.72532586 17.69949398 49.15345395 18 57 C18.99 57 19.98 57 21 57 C23.15550707 52.48068057 23.62249591 48.101331 24.125 43.1875 C24.21136719 42.39923828 24.29773438 41.61097656 24.38671875 40.79882812 C24.59751064 38.86656916 24.79962896 36.93336737 25 35 C24.01 34.67 23.02 34.34 22 34 Z M-14 35 C-13 37 -13 37 -13 37 Z M100 36.5625 C97.54601052 39.55329967 96.86224673 42.26359752 96 46 C98.40877257 45.88658466 98.40877257 45.88658466 101 45 C103.68448204 41.66753954 104.36325349 39.23795734 104 35 C101.83967603 34.79478532 101.83967603 34.79478532 100 36.5625 Z M-15 37 C-14 39 -14 39 -14 39 Z " fill="#D4BA8A" transform="translate(146,242)"/>
<path d="M0 0 C2.4777884 1.34994758 4.81957182 2.72937129 7.1875 4.25 C8.22547729 4.90838867 8.22547729 4.90838867 9.28442383 5.58007812 C22.36334347 13.98847712 34.75935137 23.42698962 47 33 C48.13902648 33.8805919 49.27835756 34.76078993 50.41796875 35.640625 C57.63508543 41.23439301 64.64848601 47.02065805 71.5390625 53.01171875 C73.71584386 54.90322909 75.9130348 56.76025504 78.1484375 58.58203125 C123.13814845 95.54770465 123.13814845 95.54770465 126 115 C126 117.875 126 117.875 125 120 C116.28744626 126.08350244 105.34072977 125.15967758 95.1875 124.75 C94.2092627 124.71165039 93.23102539 124.67330078 92.22314453 124.63378906 C86.53916907 124.33763778 81.4982696 123.45468107 76 122 C76.01918991 122.91597458 76.03837982 123.83194916 76.05815125 124.77568054 C76.23635309 133.41226233 76.39975712 142.04897048 76.54658794 150.68614483 C76.62259425 155.12649908 76.70429787 159.56659534 76.79907227 164.0065918 C76.89034236 168.2922789 76.96658071 172.57799515 77.03244972 176.86414528 C77.06019875 178.49848193 77.09334258 180.13273627 77.13199425 181.76685143 C77.18525392 184.05771726 77.21923668 186.34812672 77.2487793 188.6394043 C77.27320602 189.94290329 77.29763275 191.24640228 77.32279968 192.58940125 C76.9732775 196.28234145 76.27297603 198.09982176 74 201 C69.19446399 203.68001046 65.4645135 204.33456205 60 204 C59.08170525 201.24511575 58.87622276 199.64067785 58.87974548 196.80488586 C58.87768349 195.52395554 58.87768349 195.52395554 58.87557983 194.21714783 C58.88097275 192.81668968 58.88097275 192.81668968 58.88647461 191.38793945 C58.88632858 190.40239075 58.88618256 189.41684204 58.8860321 188.40142822 C58.88672965 185.1386903 58.89451473 181.87600922 58.90234375 178.61328125 C58.90420849 176.3531243 58.90563213 174.09296695 58.90663147 171.83280945 C58.91045224 165.8799427 58.92027881 159.92710029 58.93133545 153.97424316 C58.941559 147.90145192 58.94613112 141.82865674 58.95117188 135.75585938 C58.96190144 123.83722888 58.97897262 111.91861646 59 100 C62.20512011 98.93162663 63.2840206 99.05867988 66.5 99.70703125 C67.38276611 99.88073242 68.26553223 100.05443359 69.17504883 100.23339844 C70.57339966 100.52005371 70.57339966 100.52005371 72 100.8125 C73.89968094 101.18909801 75.79942005 101.56540272 77.69921875 101.94140625 C78.6123584 102.12461426 79.52549805 102.30782227 80.46630859 102.49658203 C83.57588466 103.11442226 86.69207707 103.68971436 89.8125 104.25 C90.64394531 104.39953125 91.47539062 104.5490625 92.33203125 104.703125 C92.88246094 104.80109375 93.43289063 104.8990625 94 105 C94.34394155 102.03686137 94.34394155 102.03686137 92.65429688 100.58007812 C92.01556641 100.06896484 91.37683594 99.55785156 90.71875 99.03125 C87.1293117 96.02319959 83.76228445 92.85720003 80.46875 89.53125 C79.9843042 89.04342041 79.4998584 88.55559082 79.00073242 88.05297852 C76.99412939 86.0286092 74.99258111 83.99927422 72.99072266 81.97021484 C67.71967512 76.63407149 62.44679582 71.36513782 56.73876953 66.48925781 C54.15207802 64.27375399 51.67962576 61.94633672 49.1875 59.625 C44.53883304 55.33052421 39.75559371 51.26197272 34.8203125 47.296875 C32.3438536 45.2800359 29.92534766 43.20975863 27.51489258 41.11499023 C18.21049816 33.06347047 8.23537215 25.82358143 -2 19 C-2.42708252 19.35191406 -2.85416504 19.70382813 -3.29418945 20.06640625 C-11.68659045 26.96865203 -20.08456763 33.77714788 -29 40 C-29.61375488 40.43054688 -30.22750977 40.86109375 -30.85986328 41.3046875 C-53.15819194 56.92160644 -53.15819194 56.92160644 -60 58 C-58.915859 48.72457148 -50.48943776 40.03589662 -43.91015625 33.8359375 C-41.91604881 31.91931072 -40.11621965 29.90839886 -38.3125 27.8125 C-11.38703354 -3.33893653 -11.38703354 -3.33893653 0 0 Z " fill="#D4BA89" transform="translate(266,107)"/>
<path d="M0 0 C3.36714812 4.75049114 3.09526173 8.16892023 2.19726562 13.63671875 C2.02904297 14.54035156 1.86082031 15.44398438 1.6875 16.375 C1.53087891 17.30183594 1.37425781 18.22867188 1.21289062 19.18359375 C0.82578493 21.45930602 0.42113655 23.73038274 0 26 C0.66 26 1.32 26 2 26 C2.29390625 25.02546875 2.29390625 25.02546875 2.59375 24.03125 C4.98929591 18.86751771 8.77049791 14.6721946 12.30078125 10.23828125 C16.3921328 5.04550923 16.3921328 5.04550923 19 -1 C21.97 -1 24.94 -1 28 -1 C32 5.625 32 5.625 32 9 C30.37660195 10.70884005 28.70680947 12.37446717 27 14 C26.34 14.99 25.68 15.98 25 17 C24.34 17 23.68 17 23 17 C22.79375 17.70125 22.5875 18.4025 22.375 19.125 C20.99639121 22.00754565 20.13101305 22.80387518 17.75 24.75 C15.4432424 26.93714996 15.4432424 26.93714996 14.94921875 29.9609375 C15.49213384 32.36713718 16.23058654 34.65630277 17 37 C17.50890714 39.14373837 18.00869737 41.28965866 18.5 43.4375 C19.40982925 47.67573758 19.40982925 47.67573758 22 51 C22.763125 50.690625 23.52625 50.38125 24.3125 50.0625 C26.18789677 49.32106407 28.08684652 48.63771783 30 48 C30.11069824 47.40985107 30.22139648 46.81970215 30.33544922 46.21166992 C30.84154992 43.53555054 31.3581489 40.86156297 31.875 38.1875 C32.04902344 37.25873047 32.22304687 36.32996094 32.40234375 35.37304688 C32.57636719 34.48037109 32.75039062 33.58769531 32.9296875 32.66796875 C33.08679199 31.84578857 33.24389648 31.0236084 33.40576172 30.17651367 C34 28 34 28 36 25 C41.32470526 22.82665092 46.45135164 22.16050245 52 24 C54.89463013 25.8921865 56.54527174 27.86547232 58 31 C59.00223293 36.36855006 58.7345524 40.55712922 56.25 45.4375 C55.5075 46.283125 54.765 47.12875 54 48 C53.401875 48.78375 52.80375 49.5675 52.1875 50.375 C49.11340303 52.65861489 46.72465424 52.28651186 43 52 C43 53.65 43 55.3 43 57 C48.57358897 56.60887095 53.89625783 56.147399 58 52 C59.87501635 48.05110192 60.62007612 43.89027701 61.4765625 39.62890625 C62.54090327 34.42446028 63.80693331 29.35133598 67 25 C70.40061081 22.87461824 73.01168011 22.73989218 77 23 C77.66 23.33 78.32 23.66 79 24 C78.9685791 23.12263184 78.9685791 23.12263184 78.93652344 22.22753906 C78.85319885 19.56853535 78.80129103 16.90980645 78.75 14.25 C78.71648437 13.32960937 78.68296875 12.40921875 78.6484375 11.4609375 C78.54993329 4.66414711 78.54993329 4.66414711 80.765625 1.39453125 C83.76626949 -0.47824862 85.63401715 -0.62111494 89.09375 -0.47265625 C91 0 91 0 93.5 2.5 C93.995 3.325 94.49 4.15 95 5 C94.68756348 5.71824951 94.37512695 6.43649902 94.05322266 7.17651367 C92.34386712 11.75896541 91.96133985 16.47707076 91.375 21.3125 C91.24383789 22.37742676 91.11267578 23.44235352 90.97753906 24.53955078 C88.74334807 38.53475254 88.74334807 38.53475254 91 52 C92.99863756 51.42055068 92.99863756 51.42055068 95 50 C96.14761166 46.97927506 97.02066365 43.92645905 97.89453125 40.81640625 C99.73222144 34.30238103 101.40893633 29.05017004 106 24 C109.57933207 22.73796459 112.32173079 23.12041388 116 24 C116.99 24.99 116.99 24.99 118 26 C119.52056618 26.59834554 121.06612088 27.13506656 122.625 27.625 C123.44226563 27.88539063 124.25953125 28.14578125 125.1015625 28.4140625 C125.72804687 28.60742188 126.35453125 28.80078125 127 29 C128.02639574 32.93332072 127.86535943 35.78292987 127.0625 39.75 C126.10265886 44.95504455 125.82390977 49.71729317 126 55 C131.0110937 50.21068109 131.0110937 50.21068109 132.28125 43.75390625 C132.33732422 42.49803711 132.33732422 42.49803711 132.39453125 41.21679688 C132.42933594 40.34087891 132.46414062 39.46496094 132.5 38.5625 C132.56896781 36.83447329 132.64172785 35.10659269 132.71875 33.37890625 C132.74904297 32.6113501 132.77933594 31.84379395 132.81054688 31.05297852 C133 29 133 29 134 26 C137.56471391 24.81176203 140.2558336 24.73725148 144 25 C146.4375 26.5 146.4375 26.5 148 28 C147.49538566 30.52761777 146.98870521 33.05441285 146.46484375 35.578125 C145.2947567 41.50656606 144.80195457 46.95961446 145 53 C145.99 53 146.98 53 148 53 C150.07277359 50.68806023 151.00978527 48.97064418 152 46 C152.99 46.33 153.98 46.66 155 47 C155.56083905 54.01048817 153.40682822 57.03157853 149.125 62.3125 C146.30857634 64.54907173 144.59742272 65 141 65 C135.49350649 61.98701299 135.49350649 61.98701299 134 59 C131.72188709 60.09686918 129.73867706 61.19069512 127.6875 62.6875 C123.15236476 64.90233349 118.68442734 63.31163966 114 62 C113.319375 63.010625 112.63875 64.02125 111.9375 65.0625 C110.5625 66.7109375 110.5625 66.7109375 109 68 C105.4375 68.1875 105.4375 68.1875 102 67 C99.81509678 64.75759932 98.39201314 62.78402628 97 60 C93.20452079 60.96776098 93.20452079 60.96776098 90 63 C85.96839809 63.26293056 84.44107266 63.29404844 81 61 C81 60.34 81 59.68 81 59 C80.278125 59.763125 79.55625 60.52625 78.8125 61.3125 C74.28657315 65.63727455 74.28657315 65.63727455 71 67 C67.875 66.5 67.875 66.5 65 65 C63.125 62.375 63.125 62.375 62 60 C57.97855708 61.37878043 55.26938665 63.31742634 52 66 C48.39528297 68.40314469 45.2706309 68.37461675 41 68 C36.89049659 66.18417291 34.48140431 63.72210647 32 60 C31.6210068 58.34311948 31.2803337 56.67639551 31 55 C30.32904297 55.83144531 30.32904297 55.83144531 29.64453125 56.6796875 C25.5543724 61.5809013 22.9044518 64.31672094 16.5 65.4375 C13.63213333 64.93562333 12.13781922 63.96465675 10.19140625 61.8046875 C5.83699864 55.20883072 4.15649526 46.53139632 2 39 C1.17428286 42.81894176 0.97985072 46.36548391 1.0625 50.25 C1.11406887 55.63526295 0.63457354 60.84403038 -1 66 C-1.99 66.99 -1.99 66.99 -3 68 C-4.32 68 -5.64 68 -7 68 C-7 67.34 -7 66.68 -7 66 C-8.98 65.34 -10.96 64.68 -13 64 C-14.125 59.25 -14.125 59.25 -13 57 C-12.87145502 55.41877453 -12.80219398 53.83253817 -12.76293945 52.24658203 C-12.73653885 51.25860626 -12.71013824 50.27063049 -12.68293762 49.25271606 C-12.65995102 48.18189789 -12.63696442 47.11107971 -12.61328125 46.0078125 C-12.58775681 44.91032684 -12.56223236 43.81284119 -12.53593445 42.68209839 C-12.48386268 40.35696954 -12.43444348 38.03178002 -12.38745117 35.70654297 C-12.31294913 32.1464616 -12.22227859 28.58702565 -12.13085938 25.02734375 C-12.08233736 22.77085453 -12.03477944 20.51434433 -11.98828125 18.2578125 C-11.95922195 17.19104279 -11.93016266 16.12427307 -11.90022278 15.025177 C-11.87480659 13.53375687 -11.87480659 13.53375687 -11.84887695 12.01220703 C-11.82968704 11.13887726 -11.81049713 10.26554749 -11.79072571 9.36575317 C-12.01727719 6.80468906 -12.70719999 5.20140638 -14 3 C-11.96601893 0.6646884 -10.50425372 -0.81898585 -7.5625 -1.875 C-4.36125872 -2.03115811 -2.75187853 -1.66561069 0 0 Z M46 30 C44.35199144 33.66447432 43.66419027 36.81203466 43.375 40.8125 C43.30023438 41.78832031 43.22546875 42.76414062 43.1484375 43.76953125 C43.09945312 44.50558594 43.05046875 45.24164063 43 46 C43.99 45.67 44.98 45.34 46 45 C48.34551123 40.06208162 48.2134222 35.33555495 48 30 C47.34 30 46.68 30 46 30 Z M77 31 C72.86783051 37.19825423 71.31593202 44.83652414 72.375 52.25 C72.58125 53.1575 72.7875 54.065 73 55 C73.99 54.67 74.98 54.34 76 54 C76.99 46.74 77.98 39.48 79 32 C78.34 31.67 77.68 31.34 77 31 Z M114 32 C111.64500327 32.88937616 111.64500327 32.88937616 110.9140625 36.03515625 C109.83999271 40.14751936 109.56088256 44.20479929 109.375 48.4375 C109.33632812 49.16904297 109.29765625 49.90058594 109.2578125 50.65429688 C109.16466016 52.43583532 109.08129714 54.21788122 109 56 C109.99 56 110.98 56 112 56 C114.19380786 48.86667506 116.27900863 41.53323309 116 34 C115.34 33.34 114.68 32.68 114 32 Z " fill="#D4BA8A" transform="translate(102,158)"/>
<path d="M0 0 C0.33 0 0.66 0 1 0 C2.27724554 5.2884299 2.33218942 10.61294469 2.51757812 16.02539062 C2.55291251 20.48236277 2.55291251 20.48236277 5 24 C5 25.32 5 26.64 5 28 C6.98 27.01 8.96 26.02 11 25 C10.79375 26.051875 10.5875 27.10375 10.375 28.1875 C10.00036896 31.99624887 10.28369933 33.66835752 12 37 C11.01 37.495 11.01 37.495 10 38 C10 36.68 10 35.36 10 34 C9.01 34 8.02 34 7 34 C6.67 34.66 6.34 35.32 6 36 C5.01 36 4.02 36 3 36 C2.63355422 37.55966592 2.28239138 39.12292651 1.9375 40.6875 C1.74027344 41.55761719 1.54304688 42.42773438 1.33984375 43.32421875 C0.97904106 46.16502153 1.39964685 48.2251394 2 51 C1.67 51.66 1.34 52.32 1 53 C1.66 53 2.32 53 3 53 C3 53.66 3 54.32 3 55 C3.99 55.33 4.98 55.66 6 56 C7.1875 59.5625 7.1875 59.5625 8 63 C3.58007217 59.66049898 1.03651596 57.32024732 -1 52 C-1.40719315 48.63684489 -1.37677845 45.32104635 -1.3125 41.9375 C-1.30412109 40.98536621 -1.29574219 40.03323242 -1.28710938 39.05224609 C-1.12153682 28.98046743 -0.1453211 19.0011075 1 9 C0.34 9 -0.32 9 -1 9 C-0.67 6.03 -0.34 3.06 0 0 Z " fill="#D4BA8B" transform="translate(90,251)"/>
<path d="M0 0 C3.28467482 1.43178133 4.62192514 2.9899887 6.4375 6.0625 C6.52607913 9.69424437 5.68949218 10.79650825 3.1875 13.4375 C0.4375 15.0625 0.4375 15.0625 -2.1875 14.9375 C-4.5625 14.0625 -4.5625 14.0625 -7.5625 12.0625 C-7.96054898 8.9776204 -8.18619809 7.01777975 -7.5625 4.0625 C-5.1110228 1.19076956 -3.80564387 0.09282058 0 0 Z " fill="#D6BE93" transform="translate(245.5625,163.9375)"/>
<path d="M0 0 C2 2 2 2 2.3125 5.4375 C2 9 2 9 0.875 10.9375 C-1.90191125 12.51108304 -3.86229327 12.38420899 -7 12 C-9.375 10.9375 -9.375 10.9375 -11 9 C-11.74242424 3.06060606 -11.74242424 3.06060606 -9.6875 0.125 C-5.86096786 -2.42602143 -3.94454074 -1.92169934 0 0 Z " fill="#D3BD96" transform="translate(226,252)"/>
<path d="M0 0 C2.07559111 6.10377535 0.59050673 12.92601761 -1 19 C-4.24982282 24.43580229 -7.94107696 28.01976661 -14 30 C-17.81015416 30.36287182 -18.7063482 30.19576787 -22 28 C-22 27.34 -22 26.68 -22 26 C-21.07767578 26.14308594 -21.07767578 26.14308594 -20.13671875 26.2890625 C-19.32847656 26.39992187 -18.52023438 26.51078125 -17.6875 26.625 C-16.88699219 26.74101562 -16.08648437 26.85703125 -15.26171875 26.9765625 C-12.71276785 27.21533407 -12.71276785 27.21533407 -10 25 C-10.33 23.68 -10.66 22.36 -11 21 C-10.34 21 -9.68 21 -9 21 C-9 20.34 -9 19.68 -9 19 C-10.98 19 -12.96 19 -15 19 C-15 16.36 -15 13.72 -15 11 C-14.01 12.485 -14.01 12.485 -13 14 C-12.34 14.66 -11.68 15.32 -11 16 C-10.236875 15.690625 -9.47375 15.38125 -8.6875 15.0625 C-6.81210323 14.32106407 -4.91315348 13.63771783 -3 13 C-2.86722656 12.14535156 -2.73445313 11.29070312 -2.59765625 10.41015625 C-2.42105469 9.30542969 -2.24445313 8.20070312 -2.0625 7.0625 C-1.80146484 5.40927734 -1.80146484 5.40927734 -1.53515625 3.72265625 C-1 1 -1 1 0 0 Z " fill="#D6BE94" transform="translate(135,193)"/>
<path d="M0 0 C3.10603462 4.80542827 3.18424818 7.81419439 2.1875 13.375 C1.97480469 14.62023437 1.76210937 15.86546875 1.54296875 17.1484375 C1.27419922 18.55996094 1.27419922 18.55996094 1 20 C-0.36398513 17.75700222 -1.05762059 16.50929167 -0.7578125 13.859375 C-0.171875 11.90625 0.4140625 9.953125 1 8 C0.071875 8.20625 -0.85625 8.4125 -1.8125 8.625 C-5 9 -5 9 -8 7 C-9.485 9.475 -9.485 9.475 -11 12 C-12.62364368 8.75271264 -13 5.60800902 -13 2 C-11.39259898 -0.1996014 -10.21222838 -0.92739555 -7.625 -1.8125 C-4.37036632 -2.04497383 -2.79864494 -1.69391668 0 0 Z " fill="#D8C19A" transform="translate(102,158)"/>
<path d="M0 0 C1.32 0 2.64 0 4 0 C3.67 0.99 3.34 1.98 3 3 C2.01 2.67 1.02 2.34 0 2 C-1.71793968 13.4477907 -1.71793968 13.4477907 -2 25 C-1.34 25 -0.68 25 0 25 C0.33 25.99 0.66 26.98 1 28 C1.99 28.66 2.98 29.32 4 30 C1.66666667 32.33333333 -0.66666667 34.66666667 -3 37 C-6.375 36.9375 -6.375 36.9375 -10 36 C-12.4375 33.4375 -12.4375 33.4375 -14 31 C-13.67 30.34 -13.34 29.68 -13 29 C-12.34 29.99 -11.68 30.98 -11 32 C-9.05167065 33.00168531 -9.05167065 33.00168531 -6.875 33.6875 C-5.78832031 34.06455078 -5.78832031 34.06455078 -4.6796875 34.44921875 C-4.12539062 34.63097656 -3.57109375 34.81273437 -3 35 C-3 34.34 -3 33.68 -3 33 C-4.32 32.34 -5.64 31.68 -7 31 C-7 30.34 -7 29.68 -7 29 C-5.35 28.67 -3.7 28.34 -2 28 C-2.495 27.67 -2.99 27.34 -3.5 27 C-5.90736941 23.79017412 -5.25425246 20.94091317 -5 17 C-4.67 16.67 -4.34 16.34 -4 16 C-3.46037396 13.00258143 -3.03451931 9.99445673 -2.59765625 6.98046875 C-2.0577456 4.28797313 -1.3648608 2.35852514 0 0 Z " fill="#D6BF99" transform="translate(214,189)"/>
<path d="M0 0 C2.4375 1.5 2.4375 1.5 4 3 C3.67 4.65 3.34 6.3 3 8 C2.34 6.68 1.68 5.36 1 4 C-0.94729537 4.84188612 -0.94729537 4.84188612 -2 6 C-2.99 6.33 -3.98 6.66 -5 7 C-5.66 6.67 -6.32 6.34 -7 6 C-7.66 10.29 -8.32 14.58 -9 19 C-8.34 19.33 -7.68 19.66 -7 20 C-8.32 20.33 -9.64 20.66 -11 21 C-11 14.73 -11 8.46 -11 2 C-6.72076717 -0.13961641 -4.68828152 -0.41859656 0 0 Z " fill="#D3BB92" transform="translate(246,183)"/>
<path d="M0 0 C1.875 0.125 1.875 0.125 4 1 C4.70381157 2.98723268 5.3711811 4.98777953 6 7 C6.99 7.33 7.98 7.66 9 8 C9.33 8.99 9.66 9.98 10 11 C8.35 11.66 6.7 12.32 5 13 C5 13.66 5 14.32 5 15 C-0.75 14.25 -0.75 14.25 -3 12 C-2.625 8.875 -2.625 8.875 -2 6 C-1.01 6 -0.02 6 1 6 C0.67 4.02 0.34 2.04 0 0 Z " fill="#D4B884" transform="translate(241,206)"/>
<path d="M0 0 C0.33 0 0.66 0 1 0 C2.4503467 8.23461308 3.12698668 15.6166525 2.3125 23.9375 C1.7694634 29.84931432 1.92480626 33.93499486 5.67578125 38.75 C6.99954907 40.12008943 6.99954907 40.12008943 9 41 C9 41.66 9 42.32 9 43 C6.12206249 41.70989008 4.03816083 40.42638194 2 38 C1.505 36.515 1.505 36.515 1 35 C0.01 35.495 0.01 35.495 -1 36 C-1 35.01 -1 34.02 -1 33 C-2.65 33 -4.3 33 -6 33 C-6 32.34 -6 31.68 -6 31 C-5.195625 30.443125 -4.39125 29.88625 -3.5625 29.3125 C-0.32947127 26.39488871 -0.26529026 24.13162393 0 20 C0.10328946 16.51911051 0.09508891 13.04449996 0.0625 9.5625 C0.05798828 8.64017578 0.05347656 7.71785156 0.04882812 6.76757812 C0.03713938 4.51164952 0.02075455 2.25586033 0 0 Z " fill="#D3BF9A" transform="translate(187,267)"/>
<path d="M0 0 C2.77475378 2.72894416 3.97020491 4.76421711 4.45703125 8.6640625 C4.4675792 11.38895044 4.35847508 14.04292532 4.09375 16.75390625 C3.76375 16.75390625 3.43375 16.75390625 3.09375 16.75390625 C3.09375 13.45390625 3.09375 10.15390625 3.09375 6.75390625 C2.43375 6.75390625 1.77375 6.75390625 1.09375 6.75390625 C1.09375 6.09390625 1.09375 5.43390625 1.09375 4.75390625 C-0.88625 5.41390625 -2.86625 6.07390625 -4.90625 6.75390625 C-4.90625 9.06390625 -4.90625 11.37390625 -4.90625 13.75390625 C-5.23625 13.75390625 -5.56625 13.75390625 -5.90625 13.75390625 C-5.90625 10.78390625 -5.90625 7.81390625 -5.90625 4.75390625 C-6.56625 4.42390625 -7.22625 4.09390625 -7.90625 3.75390625 C-6.91625 2.76390625 -5.92625 1.77390625 -4.90625 0.75390625 C-9.69103822 0.65625751 -14.18310687 0.98278084 -18.90625 1.75390625 C-17.90625 -0.24609375 -17.90625 -0.24609375 -14.90625 -1.43359375 C-9.74322081 -2.72700147 -4.59534078 -3.00392154 0 0 Z " fill="#D6C19C" transform="translate(155.90625,183.24609375)"/>
<path d="M0 0 C0.99 0.99 1.98 1.98 3 3 C3.99 2.67 4.98 2.34 6 2 C6.66 3.98 7.32 5.96 8 8 C8.66 8 9.32 8 10 8 C10.33 9.32 10.66 10.64 11 12 C8 11 8 11 6.8125 8.9375 C6.4103125 7.9784375 6.4103125 7.9784375 6 7 C1.99531193 8.37303591 -0.76067047 10.30055873 -4 13 C-4.33 13 -4.66 13 -5 13 C-5 11.35 -5 9.7 -5 8 C-4.01 8.33 -3.02 8.66 -2 9 C-2 7.35 -2 5.7 -2 4 C-3.98 4.33 -5.96 4.66 -8 5 C-5.37352812 3.24901874 -2.71224618 1.61268692 0 0 Z " fill="#D8C49D" transform="translate(158,211)"/>
<path d="M0 0 C1.6521143 0.67433237 3.30078519 1.35963121 4.921875 2.10546875 C7.9030323 3.38871127 10.97979958 4.30882018 14.08203125 5.25390625 C16 6 16 6 18 8 C18.046875 10.3125 18.046875 10.3125 17.75 13 C17.66234375 13.886875 17.5746875 14.77375 17.484375 15.6875 C17 18 17 18 15 20 C15 15.71 15 11.42 15 7 C13.329375 7.061875 13.329375 7.061875 11.625 7.125 C8 7 8 7 6 5 C1.46057302 4.77674949 -2.57117061 4.89279265 -7 6 C-2.25 1.125 -2.25 1.125 0 0 Z " fill="#D1BD9D" transform="translate(165,266)"/>
<path d="M0 0 C0 4.29 0 8.58 0 13 C-0.33 13 -0.66 13 -1 13 C-1.66 9.37 -2.32 5.74 -3 2 C-5.31 2 -7.62 2 -10 2 C-11.04005702 5.38018531 -11.08004482 8.4780279 -11 12 C-11.99 12.495 -11.99 12.495 -13 13 C-12.979375 12.278125 -12.95875 11.55625 -12.9375 10.8125 C-12.9013926 8.00649664 -12.9013926 8.00649664 -13.625 5.375 C-14 3 -14 3 -12 0 C-8.24874077 -1.47370898 -3.63034398 -1.81517199 0 0 Z " fill="#C9B79A" transform="translate(245,245)"/>
<path d="M0 0 C0.33 0 0.66 0 1 0 C2.27724554 5.2884299 2.33218942 10.61294469 2.51757812 16.02539062 C2.55291251 20.48236277 2.55291251 20.48236277 5 24 C5 24.99 5 25.98 5 27 C4.01 27.33 3.02 27.66 2 28 C1.67 28.99 1.34 29.98 1 31 C0.34 30.67 -0.32 30.34 -1 30 C-0.01 19.605 -0.01 19.605 1 9 C0.34 9 -0.32 9 -1 9 C-0.67 6.03 -0.34 3.06 0 0 Z " fill="#D9C099" transform="translate(90,251)"/>
<path d="M0 0 C2.97 0.495 2.97 0.495 6 1 C5.46375 1.556875 4.9275 2.11375 4.375 2.6875 C3.92125 3.450625 3.4675 4.21375 3 5 C3.70957237 7.73398135 3.70957237 7.73398135 5 10 C6.32 10 7.64 10 9 10 C8.67 10.99 8.34 11.98 8 13 C6.35 13 4.7 13 3 13 C2.67 13.66 2.34 14.32 2 15 C1.34 15 0.68 15 0 15 C0 10.05 0 5.1 0 0 Z " fill="#D5B68E" transform="translate(252,287)"/>
<path d="M0 0 C0.66 0 1.32 0 2 0 C2 2.97 2 5.94 2 9 C3.32 8.34 4.64 7.68 6 7 C8.359375 7.0234375 8.359375 7.0234375 10.75 7.375 C11.54921875 7.48585938 12.3484375 7.59671875 13.171875 7.7109375 C14.07679688 7.85402344 14.07679688 7.85402344 15 8 C10.28840397 11.73678306 6.98096662 12.11284843 1 12 C0.03929566 9.11788698 -0.10581883 7.30149956 -0.0625 4.3125 C-0.05347656 3.50425781 -0.04445313 2.69601562 -0.03515625 1.86328125 C-0.02355469 1.24839844 -0.01195312 0.63351562 0 0 Z " fill="#D0BF9B" transform="translate(325,299)"/>
<path d="M0 0 C2.31 0 4.62 0 7 0 C6.67 0.99 6.34 1.98 6 3 C5.34 3 4.68 3 4 3 C3.7525 3.598125 3.505 4.19625 3.25 4.8125 C1.75861278 7.42242763 0.66480553 8.59357486 -2 10 C-5.25 9.6875 -5.25 9.6875 -8 9 C-7.401875 8.938125 -6.80375 8.87625 -6.1875 8.8125 C-3.08904655 7.66164586 -2.44682943 5.89365887 -1 3 C-0.67 2.01 -0.34 1.02 0 0 Z " fill="#D3BC90" transform="translate(205,301)"/>
<path d="M0 0 C0.66 0.66 1.32 1.32 2 2 C4.06874034 2.6425235 4.06874034 2.6425235 6 3 C6.33 2.01 6.66 1.02 7 0 C7.433125 0.639375 7.86625 1.27875 8.3125 1.9375 C9.91239177 4.26746003 9.91239177 4.26746003 13 5 C12.34 6.32 11.68 7.64 11 9 C9.68 9 8.36 9 7 9 C7 8.34 7 7.68 7 7 C5.02 6.34 3.04 5.68 1 5 C0.67 3.35 0.34 1.7 0 0 Z " fill="#D3BF98" transform="translate(88,217)"/>
<path d="M0 0 C0.33 0 0.66 0 1 0 C1.36181089 2.29047223 1.71423224 4.58242945 2.0625 6.875 C2.25972656 8.15117187 2.45695312 9.42734375 2.66015625 10.7421875 C3 14 3 14 2 16 C2.66 16 3.32 16 4 16 C4 16.66 4 17.32 4 18 C4.99 18.33 5.98 18.66 7 19 C8.1875 22.5625 8.1875 22.5625 9 26 C4.5792597 22.65988511 2.09668324 20.29162914 0 15 C-0.20597558 12.2811224 -0.28948136 9.82358378 -0.1875 7.125 C-0.17396484 6.43664062 -0.16042969 5.74828125 -0.14648438 5.0390625 C-0.1114837 3.35902999 -0.05768954 1.6794065 0 0 Z " fill="#D6C3A4" transform="translate(89,288)"/>
<path d="M0 0 C2.31 0.66 4.62 1.32 7 2 C7.33 1.34 7.66 0.68 8 0 C8.61875 0.185625 9.2375 0.37125 9.875 0.5625 C14.3323206 1.18652488 18.55486111 0.56103695 23 0 C23.33 0.66 23.66 1.32 24 2 C5 5.2 5 5.2 0 2 C0 1.34 0 0.68 0 0 Z " fill="#D4C3A4" transform="translate(362,228)"/>
<path d="M0 0 C0.33 0 0.66 0 1 0 C2.55405405 9.16891892 2.55405405 9.16891892 0 13 C-2.625 13.8125 -2.625 13.8125 -5 14 C-5.66 13.01 -6.32 12.02 -7 11 C-6.21625 10.67 -5.4325 10.34 -4.625 10 C-0.84142777 7.1172783 -0.83052742 4.60565207 0 0 Z " fill="#D0BA92" transform="translate(103,299)"/>
<path d="M0 0 C2.50670488 2.50670488 2.48472791 3.97321534 3 7.4375 C3.54824376 11.11367023 3.89953191 12.84929786 6 16 C8.18505129 16.79437923 8.18505129 16.79437923 10.625 17.1875 C11.44226563 17.34605469 12.25953125 17.50460937 13.1015625 17.66796875 C14.04128906 17.83232422 14.04128906 17.83232422 15 18 C11.3125 20.015625 11.3125 20.015625 8.5 19.875 C5.33744117 18.76810441 4.03615767 17.66806868 2 15 C0.01575788 9.84097049 -0.19066851 5.43405268 0 0 Z " fill="#D1BFA0" transform="translate(131,289)"/>
<path d="M0 0 C1.32 0.66 2.64 1.32 4 2 C4 2.66 4 3.32 4 4 C3.01 4.495 3.01 4.495 2 5 C1.566875 6.423125 1.566875 6.423125 1.125 7.875 C-0.11524164 11.32011567 -1.06708994 12.01702033 -4 14 C-3.71715982 12.22773547 -3.42339502 10.457212 -3.125 8.6875 C-2.96257812 7.70136719 -2.80015625 6.71523437 -2.6328125 5.69921875 C-2 3 -2 3 0 0 Z " fill="#D3BB96" transform="translate(283,241)"/>
<path d="M0 0 C0.66 0.66 1.32 1.32 2 2 C2.99 2 3.98 2 5 2 C4.67 4.97 4.34 7.94 4 11 C2.68 11.33 1.36 11.66 0 12 C-1.53166168 7.91556885 -0.63081652 4.20544343 0 0 Z " fill="#D8C094" transform="translate(232,261)"/>
<path d="M0 0 C0.33 0 0.66 0 1 0 C0.88566637 2.25056722 0.75813564 4.50046674 0.625 6.75 C0.55539063 8.00296875 0.48578125 9.2559375 0.4140625 10.546875 C0.04676696 13.60998121 -0.39711286 15.41974266 -2 18 C-3.98 18 -5.96 18 -8 18 C-7.236875 17.443125 -6.47375 16.88625 -5.6875 16.3125 C-1.38457285 12.1318151 -1.0186891 5.65662322 0 0 Z " fill="#D4C199" transform="translate(201,194)"/>
<path d="M0 0 C2.5 2.25 2.5 2.25 4 5 C3.75 7.8125 3.75 7.8125 3 10 C2.34 10 1.68 10 1 10 C0.67 7.69 0.34 5.38 0 3 C-2.64 2.34 -5.28 1.68 -8 1 C-8.33 1.66 -8.66 2.32 -9 3 C-9.66 2.34 -10.32 1.68 -11 1 C-7.21843183 -1.57146636 -4.31265475 -1.15517538 0 0 Z " fill="#D9C5A5" transform="translate(146,242)"/>
<path d="M0 0 C0.66 0.99 1.32 1.98 2 3 C0.55555556 9.44444444 0.55555556 9.44444444 -1 11 C-0.34 11.66 0.32 12.32 1 13 C-0.95216435 14.95216435 -2.53199953 15.84826645 -5 17 C-1.92482916 5.47835991 -1.92482916 5.47835991 0 0 Z " fill="#D5BF96" transform="translate(107,267)"/>
<path d="M0 0 C2.31 0.66 4.62 1.32 7 2 C7 3.65 7 5.3 7 7 C6.34 7 5.68 7 5 7 C5 5.68 5 4.36 5 3 C3.68 3.33 2.36 3.66 1 4 C0.67 5.32 0.34 6.64 0 8 C-0.66 8 -1.32 8 -2 8 C-2.125 5.125 -2.125 5.125 -2 2 C-1.34 1.34 -0.68 0.68 0 0 Z " fill="#D6B984" transform="translate(219,252)"/>
<path d="M0 0 C0.70125 0.7425 1.4025 1.485 2.125 2.25 C4.91588732 5.09535508 4.91588732 5.09535508 8.3125 7.125 C9.6428125 8.053125 9.6428125 8.053125 11 9 C11 9.99 11 10.98 11 12 C11.66 12 12.32 12 13 12 C12.67 12.99 12.34 13.98 12 15 C7.71 10.71 3.42 6.42 -1 2 C-0.67 1.34 -0.34 0.68 0 0 Z " fill="#D0BF9A" transform="translate(331,178)"/>
<path d="M0 0 C0.99 0.33 1.98 0.66 3 1 C0.54481265 2.50537035 -1.9138452 4.00444426 -4.375 5.5 C-5.07367188 5.92925781 -5.77234375 6.35851562 -6.4921875 6.80078125 C-11.7734375 10 -11.7734375 10 -14 10 C-14 9.34 -14 8.68 -14 8 C-12.35 7.67 -10.7 7.34 -9 7 C-9 6.01 -9 5.02 -9 4 C-7.68 4 -6.36 4 -5 4 C-4.67 3.01 -4.34 2.02 -4 1 C-3.34 1 -2.68 1 -2 1 C-1.34 0.67 -0.68 0.34 0 0 Z " fill="#D9C89D" transform="translate(226,152)"/>
<path d="M0 0 C5.875 0.875 5.875 0.875 7 2 C7.45985401 8.2080292 7.45985401 8.2080292 5.875 10.9375 C3.214973 12.44484863 0.99793795 12.19986253 -2 12 C-2 11.67 -2 11.34 -2 11 C-0.35 11 1.3 11 3 11 C3.66 8.03 4.32 5.06 5 2 C3.35 1.67 1.7 1.34 0 1 C0 0.67 0 0.34 0 0 Z " fill="#CDBB97" transform="translate(221,252)"/>
<path d="M0 0 C0.66 1.32 1.32 2.64 2 4 C1.01 4.99 0.02 5.98 -1 7 C-3.9375 6.1875 -3.9375 6.1875 -7 5 C-7.33 4.01 -7.66 3.02 -8 2 C-5.36 2.33 -2.72 2.66 0 3 C0 2.01 0 1.02 0 0 Z " fill="#CEBC99" transform="translate(241,306)"/>
<path d="M0 0 C0.99 0.33 1.98 0.66 3 1 C3.29162929 5.95769796 3.12940055 9.02806853 0 13 C-0.66 13 -1.32 13 -2 13 C-2 11.68 -2 10.36 -2 9 C-1.01 9 -0.02 9 1 9 C1 7.35 1 5.7 1 4 C0.67 4.66 0.34 5.32 0 6 C-0.66 5.67 -1.32 5.34 -2 5 C-1.34 3.35 -0.68 1.7 0 0 Z " fill="#D5C4A0" transform="translate(254,204)"/>
<path d="M0 0 C2.375 2 2.375 2 4 4 C3.13375 3.79375 2.2675 3.5875 1.375 3.375 C-2.36428602 2.95952378 -4.54942141 3.60333724 -8 5 C-8.66 4.34 -9.32 3.68 -10 3 C-6.70949721 -0.03738719 -4.4409569 -0.64763955 0 0 Z " fill="#DBC6A5" transform="translate(216,181)"/>
<path d="M0 0 C0.66 0.33 1.32 0.66 2 1 C-0.15732221 3.22473853 -1.81548306 4.91242871 -5.0078125 5.1484375 C-9.07954683 4.74276655 -11.33909203 4.04930137 -14 1 C-13.07316406 1.01160156 -12.14632812 1.02320313 -11.19140625 1.03515625 C-9.39509766 1.04869141 -9.39509766 1.04869141 -7.5625 1.0625 C-5.77005859 1.07990234 -5.77005859 1.07990234 -3.94140625 1.09765625 C-1.11126659 1.33901792 -1.11126659 1.33901792 0 0 Z " fill="#CFBD9B" transform="translate(261,303)"/>
<path d="M0 0 C0.33 0 0.66 0 1 0 C1.10957031 0.75925781 1.21914063 1.51851563 1.33203125 2.30078125 C1.49058594 3.29464844 1.64914062 4.28851563 1.8125 5.3125 C1.96332031 6.29863281 2.11414063 7.28476562 2.26953125 8.30078125 C3.05398243 11.19947518 3.87256733 12.01245332 6 14 C6 14.99 6 15.98 6 17 C5.01 17 4.02 17 3 17 C-0.03901852 11.17521449 -0.3540919 6.51791392 0 0 Z " fill="#CFBE9D" transform="translate(307,291)"/>
<path d="M0 0 C0.33 0.66 0.66 1.32 1 2 C1.99 1.67 2.98 1.34 4 1 C4 2.65 4 4.3 4 6 C3.67 5.34 3.34 4.68 3 4 C2.22914063 4.16757812 1.45828125 4.33515625 0.6640625 4.5078125 C-0.33882812 4.71148437 -1.34171875 4.91515625 -2.375 5.125 C-3.37273437 5.33382813 -4.37046875 5.54265625 -5.3984375 5.7578125 C-6.25695312 5.83773438 -7.11546875 5.91765625 -8 6 C-8.66 5.34 -9.32 4.68 -10 4 C-6.7 2.68 -3.4 1.36 0 0 Z " fill="#CCB691" transform="translate(210,297)"/>
<path d="M0 0 C4.95 0.99 9.9 1.98 15 3 C11 5 11 5 7.25 4.125 C6.1775 3.75375 5.105 3.3825 4 3 C4 3.66 4 4.32 4 5 C3.01 5.33 2.02 5.66 1 6 C0.67 4.02 0.34 2.04 0 0 Z " fill="#DEC7A6" transform="translate(339,208)"/>
<path d="M0 0 C1.32 0.66 2.64 1.32 4 2 C4 2.66 4 3.32 4 4 C4.66 4 5.32 4 6 4 C6 4.66 6 5.32 6 6 C5.01 6 4.02 6 3 6 C2.67 6.66 2.34 7.32 2 8 C1.01 7.34 0.02 6.68 -1 6 C-0.67 4.02 -0.34 2.04 0 0 Z " fill="#D4B882" transform="translate(268,300)"/>
<path d="M0 0 C0.99 0 1.98 0 3 0 C3 0.99 3 1.98 3 3 C2.34 3 1.68 3 1 3 C0.87625 4.051875 0.7525 5.10375 0.625 6.1875 C0.08859218 9.45958771 -0.63880035 12.00536076 -2 15 C-3.125 13.25 -3.125 13.25 -4 11 C-3.25 9.1875 -3.25 9.1875 -2 7 C-1.30269194 4.6756398 -0.63087848 2.34326294 0 0 Z " fill="#D6C098" transform="translate(110,276)"/>
<path d="M0 0 C1.44098611 0.76429661 2.87766054 1.53672555 4.3125 2.3125 C5.11300781 2.74175781 5.91351563 3.17101562 6.73828125 3.61328125 C8.83787272 4.90059554 10.35447721 6.18406708 12 8 C11.67 8.66 11.34 9.32 11 10 C10.608125 9.54625 10.21625 9.0925 9.8125 8.625 C6.71881425 5.8513507 2.99476349 4.88772522 -1 4 C-0.67 2.68 -0.34 1.36 0 0 Z " fill="#D4C39E" transform="translate(295,242)"/>
<path d="M0 0 C3.63 0 7.26 0 11 0 C11.33 0.66 11.66 1.32 12 2 C11.04287109 2.07347656 11.04287109 2.07347656 10.06640625 2.1484375 C9.24011719 2.22320312 8.41382812 2.29796875 7.5625 2.375 C6.73878906 2.44460937 5.91507812 2.51421875 5.06640625 2.5859375 C4.38449219 2.72257813 3.70257813 2.85921875 3 3 C2.67 3.66 2.34 4.32 2 5 C1.34 5 0.68 5 0 5 C0 3.35 0 1.7 0 0 Z " fill="#CEBD92" transform="translate(93,242)"/>
<path d="M0 0 C0.99 0.33 1.98 0.66 3 1 C-0.70840948 4.55389242 -4.03684082 4.76365909 -9 5 C-9.99 4.34 -10.98 3.68 -12 3 C-12 2.34 -12 1.68 -12 1 C-11.07767578 1.14308594 -11.07767578 1.14308594 -10.13671875 1.2890625 C-9.32847656 1.39992187 -8.52023438 1.51078125 -7.6875 1.625 C-6.88699219 1.74101562 -6.08648437 1.85703125 -5.26171875 1.9765625 C-2.71276785 2.21533407 -2.71276785 2.21533407 0 0 Z " fill="#D6C2A2" transform="translate(125,218)"/>
<path d="M0 0 C2.3125 0.125 2.3125 0.125 5 1 C7.02201431 4.20733304 8 6.19154436 8 10 C7.01 10.33 6.02 10.66 5 11 C3.11482947 9.11482947 3.65032358 6.4296919 3.4765625 3.91015625 C3.12754539 1.5989539 3.12754539 1.5989539 0 0 Z " fill="#D3C29A" transform="translate(126,157)"/>
<path d="M0 0 C2.31 0.66 4.62 1.32 7 2 C7 2.66 7 3.32 7 4 C7.66 4 8.32 4 9 4 C9.99 5.485 9.99 5.485 11 7 C10.67 7.99 10.34 8.98 10 10 C8.33037631 8.52417192 6.6643694 7.04425109 5 5.5625 C4.071875 4.73878906 3.14375 3.91507813 2.1875 3.06640625 C1.465625 2.38449219 0.74375 1.70257813 0 1 C0 0.67 0 0.34 0 0 Z " fill="#DBC49B" transform="translate(290,144)"/>
<path d="M0 0 C3.3125 1.5 3.3125 1.5 6 3 C5.34 3.66 4.68 4.32 4 5 C1.0371669 4.60495559 -1.38326241 3.40182371 -4 2 C-4.99 2.66 -5.98 3.32 -7 4 C-7 3.01 -7 2.02 -7 1 C-4.40425121 -0.2978744 -2.89667268 -0.26333388 0 0 Z " fill="#D4BDA0" transform="translate(174,303)"/>
<path d="M0 0 C2 3 2 3 1.8125 5.5 C0.930452 8.21399383 0.05802412 9.10661781 -2 11 C-3.17574711 13.09989652 -3.17574711 13.09989652 -4 15 C-5 13 -5 13 -4.00390625 9.9609375 C-3.52824219 8.77757812 -3.05257812 7.59421875 -2.5625 6.375 C-2.08941406 5.18648438 -1.61632812 3.99796875 -1.12890625 2.7734375 C-0.75636719 1.85820312 -0.38382813 0.94296875 0 0 Z " fill="#D3C19C" transform="translate(130,262)"/>
<path d="M0 0 C4.52615993 3.67832017 8.39424999 7.41086363 12 12 C9.5625 11.1875 9.5625 11.1875 7 10 C6.67 9.01 6.34 8.02 6 7 C5.34 7 4.68 7 4 7 C4 6.34 4 5.68 4 5 C2.68 4.67 1.36 4.34 0 4 C0 2.68 0 1.36 0 0 Z " fill="#D4BE9D" transform="translate(366,187)"/>
<path d="M0 0 C0.66 0.33 1.32 0.66 2 1 C1.67 2.65 1.34 4.3 1 6 C0.443125 6.0825 -0.11375 6.165 -0.6875 6.25 C-3.69714206 7.22610013 -5.62154752 8.95188814 -8 11 C-8.66 10.67 -9.32 10.34 -10 10 C-9.52949219 9.61328125 -9.05898437 9.2265625 -8.57421875 8.828125 C-5.3182388 6.10469664 -2.34546467 3.58718126 0 0 Z " fill="#D3C099" transform="translate(237,125)"/>
<path d="M0 0 C-3 2 -3 2 -5 3 C-4.773125 3.598125 -4.54625 4.19625 -4.3125 4.8125 C-4.209375 5.534375 -4.10625 6.25625 -4 7 C-4.99 7.99 -5.98 8.98 -7 10 C-7.33 6.7 -7.66 3.4 -8 0 C-4.29847322 -0.92538169 -3.36541838 -1.08174162 0 0 Z " fill="#D0BF9A" transform="translate(220,270)"/>
<path d="M0 0 C1.32 0.33 2.64 0.66 4 1 C3.505 1.33 3.01 1.66 2.5 2 C0.11820439 5.17572747 0.80831774 8.10246066 1 12 C0.01 12.495 0.01 12.495 -1 13 C-0.979375 12.278125 -0.95875 11.55625 -0.9375 10.8125 C-0.9013926 8.00649664 -0.9013926 8.00649664 -1.625 5.375 C-2 3 -2 3 0 0 Z " fill="#DAC7A8" transform="translate(233,245)"/>
<path d="M0 0 C-0.33 2.31 -0.66 4.62 -1 7 C-1.99 7.33 -2.98 7.66 -4 8 C-4 6.68 -4 5.36 -4 4 C-4.66 3.34 -5.32 2.68 -6 2 C-3 0 -3 0 0 0 Z " fill="#CFB78E" transform="translate(133,208)"/>
<path d="M0 0 C0 0.66 0 1.32 0 2 C1.32 2.66 2.64 3.32 4 4 C3.01 4.495 3.01 4.495 2 5 C1.030625 4.67 0.06125 4.34 -0.9375 4 C-3.99162848 2.66660903 -3.99162848 2.66660903 -7 4 C-6.67 3.01 -6.34 2.02 -6 1 C-4 0 -4 0 0 0 Z " fill="#D3B782" transform="translate(99,159)"/>
<path d="M0 0 C0 0.66 0 1.32 0 2 C-3.49127182 4.11970075 -3.49127182 4.11970075 -6.125 3.5 C-6.74375 3.335 -7.3625 3.17 -8 3 C-8.66 3.66 -9.32 4.32 -10 5 C-9.625 3.0625 -9.625 3.0625 -9 1 C-6.04335481 -0.4783226 -3.25770263 -0.06032783 0 0 Z " fill="#D0BD97" transform="translate(201,244)"/>
<path d="M0 0 C0.99 1.485 0.99 1.485 2 3 C4.1385485 5.1385485 5.13275314 5.42655063 8 6 C7.67 6.66 7.34 7.32 7 8 C4.69 8 2.38 8 0 8 C0 5.36 0 2.72 0 0 Z " fill="#DCC5A3" transform="translate(120,204)"/>
<path d="M0 0 C6.4 -0.36923077 6.4 -0.36923077 9.4375 1.5 C9.953125 1.995 10.46875 2.49 11 3 C10.67 4.65 10.34 6.3 10 8 C9.835 7.401875 9.67 6.80375 9.5 6.1875 C7.18723796 2.81472202 3.80108663 2.1668452 0 1 C0 0.67 0 0.34 0 0 Z " fill="#D5C6A1" transform="translate(239,183)"/>
<path d="M0 0 C3.53372712 1.96318174 6.24479785 4.04070881 9 7 C7.02 7.33 5.04 7.66 3 8 C0 2.25 0 2.25 0 0 Z " fill="#DAC39C" transform="translate(313,141)"/>
<path d="M0 0 C3.73487777 0.4979837 5.81237635 0.87491756 9 3 C9.3125 6 9.3125 6 9 9 C8.34 9.66 7.68 10.32 7 11 C6.95875 9.906875 6.9175 8.81375 6.875 7.6875 C6.39434602 3.75003667 6.39434602 3.75003667 2.9375 2.0625 C1.968125 1.711875 0.99875 1.36125 0 1 C0 0.67 0 0.34 0 0 Z " fill="#D4C4A0" transform="translate(221,185)"/>
<path d="M0 0 C7.48291572 6.15034169 7.48291572 6.15034169 10 10 C5.89665529 9.06742166 4.28397854 8.35870974 1.625 5 C0 2 0 2 0 0 Z " fill="#DAC29F" transform="translate(350,171)"/>
<path d="M0 0 C1 3 1 3 0.0625 5.1875 C-0.4634375 6.0846875 -0.4634375 6.0846875 -1 7 C-0.34 7 0.32 7 1 7 C0.67 7.99 0.34 8.98 0 10 C-1.32 10 -2.64 10 -4 10 C-3.43454163 6.04179141 -2.19097652 3.3340947 0 0 Z " fill="#D4C09F" transform="translate(210,155)"/>
<path d="M0 0 C1.32 0.66 2.64 1.32 4 2 C1.875 4.0625 1.875 4.0625 -1 6 C-4.3125 5.75 -4.3125 5.75 -7 5 C-6.401875 4.9175 -5.80375 4.835 -5.1875 4.75 C-2.4033704 3.79544128 -1.56688858 2.42867729 0 0 Z " fill="#DCC8A2" transform="translate(204,305)"/>
<path d="M0 0 C0.33 0 0.66 0 1 0 C1.05380578 2.79192205 1.09357669 5.5828141 1.125 8.375 C1.14175781 9.1690625 1.15851563 9.963125 1.17578125 10.78125 C1.19335473 12.85492015 1.10335168 14.92883241 1 17 C0.34 17.66 -0.32 18.32 -1 19 C-1.38063221 16.6739143 -1.71269945 14.33944736 -2 12 C-1.67 11.67 -1.34 11.34 -1 11 C-0.76636119 9.15108054 -0.58696365 7.29511969 -0.4375 5.4375 C-0.35371094 4.42558594 -0.26992187 3.41367187 -0.18359375 2.37109375 C-0.12300781 1.58863281 -0.06242188 0.80617187 0 0 Z " fill="#D6BEA2" transform="translate(210,254)"/>
<path d="M0 0 C0 2.95274099 -0.43891831 4.49058403 -1.5 7.1875 C-1.7784375 7.90292969 -2.056875 8.61835938 -2.34375 9.35546875 C-2.5603125 9.89816406 -2.776875 10.44085938 -3 11 C-3.99 10.67 -4.98 10.34 -6 10 C-5.38302681 8.51746733 -4.75616104 7.03904826 -4.125 5.5625 C-3.60292969 4.32693359 -3.60292969 4.32693359 -3.0703125 3.06640625 C-2 1 -2 1 0 0 Z " fill="#D3C3A4" transform="translate(171,182)"/>
<path d="M0 0 C1.98 0 3.96 0 6 0 C6.0825 0.5775 6.165 1.155 6.25 1.75 C7.20531013 4.6159304 8.78469173 5.9990764 11 8 C7.24026115 8 6.54322371 7.03457593 3.8125 4.5625 C3.09707031 3.92441406 2.38164062 3.28632813 1.64453125 2.62890625 C1.10183594 2.09136719 0.55914062 1.55382812 0 1 C0 0.67 0 0.34 0 0 Z " fill="#DECAA0" transform="translate(305,157)"/>
<path d="M0 0 C4.28477792 2.30718811 7.72291137 4.32966073 11 8 C7.31145641 7.29066469 4.21776055 5.93065633 1 4 C0.125 1.8125 0.125 1.8125 0 0 Z " fill="#D8C4A2" transform="translate(296,128)"/>
<path d="M0 0 C0.5534764 2.07553648 1 3.84365964 1 6 C1.99 6.66 2.98 7.32 4 8 C3.67 8.66 3.34 9.32 3 10 C1.35 9.67 -0.3 9.34 -2 9 C-3 6 -3 6 -1.5625 2.8125 C-1.046875 1.884375 -0.53125 0.95625 0 0 Z " fill="#D4C3A6" transform="translate(267,300)"/>
<path d="M0 0 C1.32 0.66 2.64 1.32 4 2 C3.34 2 2.68 2 2 2 C1.34 5.3 0.68 8.6 0 12 C-0.33 12 -0.66 12 -1 12 C-1.22162329 10.37675914 -1.42689803 8.751279 -1.625 7.125 C-1.74101562 6.22007812 -1.85703125 5.31515625 -1.9765625 4.3828125 C-1.98429688 3.59648437 -1.99203125 2.81015625 -2 2 C-1.34 1.34 -0.68 0.68 0 0 Z " fill="#DCC8A2" transform="translate(166,274)"/>
<path d="M0 0 C0.33 0 0.66 0 1 0 C2.32286246 4.96073422 2.08893197 9.91111512 2 15 C1.67 15 1.34 15 1 15 C1 13.02 1 11.04 1 9 C0.34 9 -0.32 9 -1 9 C-0.67 6.03 -0.34 3.06 0 0 Z " fill="#E4D8AB" transform="translate(90,251)"/>
<path d="M0 0 C0.4125 0.45375 0.825 0.9075 1.25 1.375 C3.06408095 3.05950374 4.75285627 3.99265971 7 5 C7 5.66 7 6.32 7 7 C8.32 7.33 9.64 7.66 11 8 C4.63265306 7.63265306 4.63265306 7.63265306 1.5625 4.5625 C0 2 0 2 0 0 Z " fill="#D8C3A8" transform="translate(200,218)"/>
<path d="M0 0 C0.66 0 1.32 0 2 0 C2.6875 2.25 2.6875 2.25 3 5 C1.6875 7.3125 1.6875 7.3125 0 9 C-0.66 9 -1.32 9 -2 9 C-1 7 0 5 1 3 C0.34 2.67 -0.32 2.34 -1 2 C-0.67 1.34 -0.34 0.68 0 0 Z " fill="#CEBB98" transform="translate(389,220)"/>
<path d="M0 0 C0.66 1.32 1.32 2.64 2 4 C0.02 5.32 -1.96 6.64 -4 8 C-4.66 7.67 -5.32 7.34 -6 7 C-4.02 4.69 -2.04 2.38 0 0 Z " fill="#DDC9A1" transform="translate(219,144)"/>
<path d="M0 0 C0.66 0.99 1.32 1.98 2 3 C1.5390625 5.26171875 1.5390625 5.26171875 0.625 7.6875 C0.18027344 8.89986328 0.18027344 8.89986328 -0.2734375 10.13671875 C-0.51320313 10.75160156 -0.75296875 11.36648438 -1 12 C-1.66 11.67 -2.32 11.34 -3 11 C-2.34 8.69 -1.68 6.38 -1 4 C-1.66 3.67 -2.32 3.34 -3 3 C-2.67 2.34 -2.34 1.68 -2 1 C-1.34 1.33 -0.68 1.66 0 2 C0 1.34 0 0.68 0 0 Z " fill="#D3C19D" transform="translate(125,289)"/>
<path d="M0 0 C-1.125 1.5 -1.125 1.5 -3 3 C-6.1875 3.1875 -6.1875 3.1875 -9 3 C-9.33 2.34 -9.66 1.68 -10 1 C-6.52674819 -0.1577506 -3.63932552 -0.06866652 0 0 Z " fill="#D7C2A2" transform="translate(195,218)"/>
<path d="M0 0 C2 0 2 0 4.5 2.25 C6.60976612 4.57074273 7.71940585 6.22537933 9 9 C7.491987 8.07544441 5.99375083 7.1349253 4.5 6.1875 C3.6646875 5.66542969 2.829375 5.14335937 1.96875 4.60546875 C0.99421875 3.81076172 0.99421875 3.81076172 0 3 C0 2.01 0 1.02 0 0 Z " fill="#DEC9A4" transform="translate(279,134)"/>
<path d="M0 0 C1.44977894 2.34112451 2.04314411 3.5796929 1.7578125 6.359375 C1.54898438 7.14828125 1.34015625 7.9371875 1.125 8.75 C0.92132813 9.54921875 0.71765625 10.3484375 0.5078125 11.171875 C0.34023437 11.77515625 0.17265625 12.3784375 0 13 C-0.33 13 -0.66 13 -1 13 C-1.0272415 11.58344207 -1.04650467 10.16672955 -1.0625 8.75 C-1.07410156 7.96109375 -1.08570313 7.1721875 -1.09765625 6.359375 C-1.00385306 4.09308998 -0.63241063 2.1711105 0 0 Z " fill="#D6BF9F" transform="translate(180,193)"/>
<path d="M0 0 C0.99 0.33 1.98 0.66 3 1 C2 3 2 3 0.5625 4.875 C-0.89347124 6.85512088 -1.96776501 8.77672464 -3 11 C-3.32613618 6.32538149 -2.70582788 3.83325617 0 0 Z " fill="#D2C199" transform="translate(178,187)"/>
<path d="M0 0 C1.32 0.33 2.64 0.66 4 1 C3.34 1 2.68 1 2 1 C1.71125 1.763125 1.4225 2.52625 1.125 3.3125 C0 6 0 6 -2 9 C-2.66 8.67 -3.32 8.34 -4 8 C-2.68 5.36 -1.36 2.72 0 0 Z " fill="#D3C4A1" transform="translate(121,157)"/>
<path d="M0 0 C2.97 0.495 2.97 0.495 6 1 C5.505 1.61875 5.01 2.2375 4.5 2.875 C2.80777227 4.83880904 2.80777227 4.83880904 3 7 C2.01 7 1.02 7 0 7 C0 4.69 0 2.38 0 0 Z " fill="#DAC4A0" transform="translate(252,287)"/>
<path d="M0 0 C0 0.66 0 1.32 0 2 C-1.98 2 -3.96 2 -6 2 C-6.33 2.99 -6.66 3.98 -7 5 C-7.66 5 -8.32 5 -9 5 C-6.81610567 0.16423399 -5.20641855 -0.13701101 0 0 Z " fill="#D6C59F" transform="translate(122,247)"/>
<path d="M0 0 C3.26460973 1.80412643 4.88929795 2.83394693 7 6 C2.25 5.25 2.25 5.25 0 3 C0 2.01 0 1.02 0 0 Z " fill="#DBC69D" transform="translate(328,153)"/>
<path d="M0 0 C0.33 0.99 0.66 1.98 1 3 C1.66 3.33 2.32 3.66 3 4 C2.67 4.33 2.34 4.66 2 5 C2.66 5.66 3.32 6.32 4 7 C3.01 7 2.02 7 1 7 C-1.1875 4.5 -1.1875 4.5 -3 2 C-2.34 2 -1.68 2 -1 2 C-0.67 1.34 -0.34 0.68 0 0 Z " fill="#E0CD9A" transform="translate(324,169)"/>
<path d="M0 0 C2.64 0 5.28 0 8 0 C7.34 1.32 6.68 2.64 6 4 C5.01 3.34 4.02 2.68 3 2 C2.01 2.33 1.02 2.66 0 3 C0 2.01 0 1.02 0 0 Z " fill="#D7C19A" transform="translate(261,124)"/>
<path d="M0 0 C1.0209375 0.2165625 1.0209375 0.2165625 2.0625 0.4375 C5.36273082 1.06945909 8.67144426 1.54313941 12 2 C12 2.33 12 2.66 12 3 C10.56344146 3.08131463 9.1255517 3.13933559 7.6875 3.1875 C6.48673828 3.23970703 6.48673828 3.23970703 5.26171875 3.29296875 C2.52148416 2.93801608 1.70828921 2.10633718 0 0 Z " fill="#D9CCAD" transform="translate(298,307)"/>
<path d="M0 0 C0.66 0.66 1.32 1.32 2 2 C3.32 2 4.64 2 6 2 C5.67 2.99 5.34 3.98 5 5 C2.03 4.505 2.03 4.505 -1 4 C-0.67 2.68 -0.34 1.36 0 0 Z " fill="#D5BF99" transform="translate(255,295)"/>
<path d="M0 0 C0.66 0.99 1.32 1.98 2 3 C0.625 6.6875 0.625 6.6875 -1 10 C-2.46726798 6.18510326 -1.43336419 3.70988378 0 0 Z " fill="#D2C098" transform="translate(275,276)"/>
<path d="M0 0 C2.475 0.99 2.475 0.99 5 2 C5 2.66 5 3.32 5 4 C4.34 4 3.68 4 3 4 C3 3.34 3 2.68 3 2 C1.35 3.32 -0.3 4.64 -2 6 C-1.125 1.125 -1.125 1.125 0 0 Z " fill="#DBC5A6" transform="translate(180,215)"/>
<path d="M0 0 C1.98 0 3.96 0 6 0 C5.34 1.65 4.68 3.3 4 5 C1.525 4.01 1.525 4.01 -1 3 C-0.67 2.01 -0.34 1.02 0 0 Z " fill="#E0BD98" transform="translate(361,210)"/>
<path d="M0 0 C0.66 0.33 1.32 0.66 2 1 C-3.75 6 -3.75 6 -6 6 C-6 5.01 -6 4.02 -6 3 C-4.68 3 -3.36 3 -2 3 C-2 2.34 -2 1.68 -2 1 C-1.34 0.67 -0.68 0.34 0 0 Z " fill="#DDC9A2" transform="translate(237,144)"/>
</svg>
